<svg width="100" height="26" viewBox="0 0 100 26" fill="none" xmlns="http://www.w3.org/2000/svg">
<g clip-path="url(#clip0_1_8)">
<mask id="mask0_1_8" style="mask-type:alpha" maskUnits="userSpaceOnUse" x="0" y="-1" width="100" height="28">
<path d="M85.9616 -0.140854H13.4409C6.01768 -0.140854 0 5.87682 0 13.3C0 20.7232 6.01768 26.7409 13.4409 26.7409H85.9616C93.3848 26.7409 99.4025 20.7232 99.4025 13.3C99.4025 5.87682 93.3848 -0.140854 85.9616 -0.140854Z" fill="#5EC1BC"/>
</mask>
<g mask="url(#mask0_1_8)">
<path d="M85.549 -0.140854H13.0282C5.60502 -0.140854 -0.412659 5.87682 -0.412659 13.3C-0.412659 20.7232 5.60502 26.7409 13.0282 26.7409H85.549C92.9721 26.7409 98.9898 20.7232 98.9898 13.3C98.9898 5.87682 92.9721 -0.140854 85.549 -0.140854Z" fill="#50CD47"/>
<path d="M110.298 19.214C110.298 12.5331 104.882 7.11722 98.2012 7.11722C91.5203 7.11722 86.1044 12.5331 86.1044 19.214C86.1044 25.8949 91.5203 31.3108 98.2012 31.3108C104.882 31.3108 110.298 25.8949 110.298 19.214Z" stroke="white" stroke-width="0.537634"/>
<path d="M100.352 27.8161C100.352 21.2837 95.0562 15.9882 88.5238 15.9882C81.9914 15.9882 76.6959 21.2837 76.6959 27.8161C76.6959 34.3485 81.9914 39.6441 88.5238 39.6441C95.0562 39.6441 100.352 34.3485 100.352 27.8161Z" stroke="white" stroke-width="1.07527"/>
<path d="M16.7496 -0.14085C16.7496 -6.82171 11.3337 -12.2376 4.65287 -12.2376C-2.028 -12.2376 -7.44391 -6.82171 -7.44391 -0.14085C-7.44391 6.54001 -2.028 11.9559 4.65287 11.9559C11.3337 11.9559 16.7496 6.54001 16.7496 -0.14085Z" stroke="white" stroke-width="0.537634"/>
<path d="M7.87863 10.6118C7.87863 4.07943 2.58307 -1.21613 -3.94933 -1.21613C-10.4817 -1.21613 -15.7773 4.07943 -15.7773 10.6118C-15.7773 17.1442 -10.4817 22.4398 -3.94933 22.4398C2.58307 22.4398 7.87863 17.1442 7.87863 10.6118Z" stroke="white" stroke-width="1.07527"/>
</g>
</g>
<defs>
<clipPath id="clip0_1_8">
<rect width="100" height="26.8817" fill="white" transform="translate(0 -0.140854)"/>
</clipPath>
</defs>
</svg>
