<svg width="15" height="15" viewBox="0 0 15 15" fill="none" xmlns="http://www.w3.org/2000/svg">
<path d="M4.83002 23.3H20.83C21.0271 23.3004 21.2222 23.2617 21.4043 23.1865C21.5864 23.1111 21.7519 23.0006 21.8912 22.8612C22.0306 22.7219 22.1411 22.5565 22.2164 22.3744C22.2916 22.1923 22.3303 21.9971 22.33 21.8V19.8H17.83C17.6329 19.8004 17.4378 19.7617 17.2557 19.6865C17.0736 19.6111 16.9081 19.5006 16.7688 19.3612C16.6294 19.2219 16.5189 19.0565 16.4436 18.8744C16.3684 18.6923 16.3297 18.4971 16.33 18.3V14.3001C16.3297 14.103 16.3684 13.9079 16.4436 13.7258C16.5189 13.5437 16.6294 13.3781 16.7688 13.2388C16.9081 13.0994 17.0736 12.9889 17.2557 12.9136C17.4378 12.8384 17.6329 12.7998 17.83 12.8001H22.33V10.8001C22.3303 10.603 22.2916 10.4078 22.2164 10.2257C22.1411 10.0436 22.0306 9.87814 21.8912 9.7388C21.7519 9.59946 21.5864 9.48898 21.4043 9.4137C21.2222 9.33841 21.0271 9.29979 20.83 9.30005H4.83002C4.63296 9.29979 4.43779 9.33841 4.25568 9.4137C4.07358 9.48898 3.90811 9.59946 3.76877 9.7388C3.62943 9.87814 3.51895 10.0436 3.44367 10.2257C3.36838 10.4078 3.32976 10.603 3.33002 10.8001V21.8C3.32976 21.9971 3.36838 22.1923 3.44367 22.3744C3.51895 22.5565 3.62943 22.7219 3.76877 22.8612C3.90811 23.0006 4.07358 23.1111 4.25568 23.1865C4.43779 23.2617 4.63296 23.3004 4.83002 23.3Z" fill="#D92E15"/>
<path d="M19.4261 8.20003H11.234C11.5239 7.46207 12.0078 6.81497 12.6355 6.32779C13.2997 5.81236 14.0973 5.49743 14.9344 5.42002H14.9698L14.9781 5.41968C14.9859 5.41902 14.9937 5.41838 15.0014 5.41774C15.1128 5.40841 15.2128 5.40002 15.3298 5.40002C16.2395 5.39961 17.1268 5.68157 17.8694 6.20697C18.5732 6.70498 19.1141 7.39845 19.4261 8.20003Z" fill="#FFC046"/>
<path d="M11.9256 2.69995C12.7746 3.03062 13.4989 3.6163 13.9998 4.37467C13.0648 4.60407 12.2038 5.07037 11.5001 5.72965C10.78 6.40428 10.2509 7.25652 9.96543 8.20012H6.16068C6.00453 7.75047 5.92651 7.27722 5.93018 6.80089C5.92994 5.84309 6.24232 4.91059 6.81986 4.1465C7.3974 3.38241 8.20854 2.82769 9.13008 2.5666C10.0516 2.30552 11.0331 2.35234 11.9256 2.69995Z" fill="#FFC046"/>
</svg>
