<svg width="17" height="17" viewBox="0 0 17 17" fill="none" xmlns="http://www.w3.org/2000/svg">
<g clip-path="url(#clip0_1_1776)">
<path d="M2.30347 12.1333V12.0332C2.30347 11.8222 2.30347 11.7167 2.3196 11.6139C2.33393 11.5227 2.35771 11.4332 2.39054 11.3468C2.42752 11.2496 2.47987 11.158 2.58455 10.9748L4.97013 6.8M2.30347 12.1333C2.30347 13.6061 3.49737 14.8 4.97013 14.8C6.44289 14.8 7.6368 13.6061 7.6368 12.1333M2.30347 12.1333V12C2.30347 11.8133 2.30347 11.72 2.3398 11.6487C2.37176 11.5859 2.42275 11.535 2.48547 11.503C2.55677 11.4667 2.65012 11.4667 2.8368 11.4667H7.10347C7.29015 11.4667 7.38349 11.4667 7.4548 11.503C7.51752 11.535 7.56851 11.5859 7.60047 11.6487C7.6368 11.72 7.6368 11.8133 7.6368 12V12.1333M4.97013 6.8L7.35572 10.9748C7.4604 11.158 7.51274 11.2496 7.54972 11.3468C7.58256 11.4332 7.60633 11.5227 7.62066 11.6139C7.6368 11.7167 7.6368 11.8222 7.6368 12.0332V12.1333M4.97013 6.8L12.9702 5.46667M12.9702 5.46667L10.5845 9.64144C10.4799 9.82463 10.4275 9.91623 10.3905 10.0135C10.3577 10.0998 10.3339 10.1893 10.3196 10.2806C10.3035 10.3834 10.3035 10.4889 10.3035 10.6999V10.8M12.9702 5.46667L15.3557 9.64144C15.4604 9.82463 15.5128 9.91623 15.5498 10.0135C15.5826 10.0998 15.6064 10.1893 15.6207 10.2806C15.6368 10.3834 15.6368 10.4889 15.6368 10.6999V10.8M10.3035 10.8C10.3035 12.2728 11.4974 13.4667 12.9702 13.4667C14.4429 13.4667 15.6368 12.2728 15.6368 10.8M10.3035 10.8V10.6667C10.3035 10.48 10.3035 10.3866 10.3398 10.3153C10.3718 10.2526 10.4227 10.2016 10.4855 10.1697C10.5568 10.1333 10.6501 10.1333 10.8368 10.1333H15.1035C15.2902 10.1333 15.3835 10.1333 15.4548 10.1697C15.5175 10.2016 15.5685 10.2526 15.6005 10.3153C15.6368 10.3866 15.6368 10.48 15.6368 10.6667V10.8M8.97013 2.8V6.13333" stroke="#0B2B5E" stroke-width="1.2" stroke-linecap="round" stroke-linejoin="round"/>
</g>
<defs>
<clipPath id="clip0_1_1776">
<rect width="16" height="16" fill="white" transform="translate(0.969971 0.800003)"/>
</clipPath>
</defs>
</svg>
