<svg width="29" height="25" viewBox="0 0 29 25" fill="none" xmlns="http://www.w3.org/2000/svg">
<path d="M21.9632 2.56H8.24888C7.70786 2.56 7.26929 3.00772 7.26929 3.56V21.56C7.26929 22.1123 7.70786 22.56 8.24888 22.56H21.9632C22.5042 22.56 22.9428 22.1123 22.9428 21.56V3.56C22.9428 3.00772 22.5042 2.56 21.9632 2.56Z" stroke="#D92E15" stroke-width="2"/>
<path d="M7.26929 8.31H22.9428" stroke="#D92E15" stroke-width="2" stroke-linecap="round" stroke-linejoin="round"/>
<path d="M17.5449 5.56C17.5449 5.84591 17.3205 6.06 17.0653 6.06C16.8101 6.06 16.5857 5.84591 16.5857 5.56C16.5857 5.27409 16.8101 5.06 17.0653 5.06C17.3205 5.06 17.5449 5.27409 17.5449 5.56Z" stroke="#D92E15"/>
<path d="M20.4834 5.56C20.4834 5.84591 20.259 6.06 20.0038 6.06C19.7486 6.06 19.5242 5.84591 19.5242 5.56C19.5242 5.27409 19.7486 5.06 20.0038 5.06C20.259 5.06 20.4834 5.27409 20.4834 5.56Z" stroke="#D92E15"/>
<path d="M15.1061 19.06C16.9996 19.06 18.5347 17.493 18.5347 15.56C18.5347 13.627 16.9996 12.06 15.1061 12.06C13.2125 12.06 11.6775 13.627 11.6775 15.56C11.6775 17.493 13.2125 19.06 15.1061 19.06Z" stroke="#D92E15" stroke-width="2"/>
</svg>
