<svg width="25" height="25" viewBox="0 0 25 25" fill="none" xmlns="http://www.w3.org/2000/svg">
<path d="M20.78 7.91771L12.28 12.6399M12.28 12.6399L3.77994 7.91771M12.28 12.6399V22.14M21.28 16.6985V8.58141C21.28 8.23876 21.28 8.06744 21.2295 7.91464C21.1849 7.77947 21.1118 7.65539 21.0154 7.5507C20.9063 7.43236 20.7566 7.34916 20.457 7.18276L13.057 3.07164C12.7734 2.91409 12.6316 2.83531 12.4815 2.80442C12.3485 2.77709 12.2115 2.77709 12.0786 2.80442C11.9284 2.83531 11.7866 2.91409 11.503 3.07165L4.10294 7.18276C3.80342 7.34916 3.65366 7.43236 3.5446 7.5507C3.44813 7.65539 3.37512 7.77947 3.33045 7.91465C3.27997 8.06745 3.27997 8.23877 3.27997 8.58141V16.6985C3.27997 17.0412 3.27997 17.2125 3.33045 17.3653C3.37512 17.5005 3.44813 17.6245 3.5446 17.7292C3.65366 17.8476 3.80342 17.9308 4.10294 18.0972L11.503 22.2083C11.7866 22.3658 11.9284 22.4446 12.0786 22.4755C12.2115 22.5028 12.3485 22.5028 12.4815 22.4755C12.6316 22.4446 12.7734 22.3658 13.057 22.2083L20.457 18.0972C20.7566 17.9308 20.9063 17.8476 21.0154 17.7292C21.1118 17.6245 21.1849 17.5005 21.2295 17.3653C21.28 17.2125 21.28 17.0412 21.28 16.6985Z" stroke="#0B2B5E" stroke-width="2" stroke-linecap="round" stroke-linejoin="round"/>
<path d="M16.78 10.14L7.77997 5.14" stroke="#0B2B5E" stroke-width="2" stroke-linecap="round" stroke-linejoin="round"/>
</svg>
