<svg width="25" height="25" viewBox="0 0 25 25" fill="none" xmlns="http://www.w3.org/2000/svg">
<path d="M3.26999 2.8H4.57615C4.82217 2.8 4.94518 2.8 5.04417 2.84524C5.13141 2.88511 5.20534 2.94922 5.25714 3.02995C5.31592 3.12154 5.33332 3.24332 5.36811 3.48686L5.84142 6.8M5.84142 6.8L6.89331 14.5314C7.0268 15.5125 7.09354 16.0031 7.32809 16.3723C7.53477 16.6977 7.83107 16.9564 8.18134 17.1174C8.57885 17.3 9.07393 17.3 10.0641 17.3H18.622C19.5645 17.3 20.0358 17.3 20.421 17.1304C20.7605 16.9809 21.0518 16.7398 21.2623 16.4342C21.5009 16.0876 21.5891 15.6247 21.7655 14.6988L23.0891 7.74969C23.1512 7.42381 23.1822 7.26087 23.1372 7.1335C23.0978 7.02177 23.0199 6.92768 22.9175 6.86802C22.8008 6.8 22.635 6.8 22.3032 6.8H5.84142ZM11.27 21.8C11.27 22.3523 10.8223 22.8 10.27 22.8C9.71771 22.8 9.26999 22.3523 9.26999 21.8C9.26999 21.2477 9.71771 20.8 10.27 20.8C10.8223 20.8 11.27 21.2477 11.27 21.8ZM19.27 21.8C19.27 22.3523 18.8223 22.8 18.27 22.8C17.7177 22.8 17.27 22.3523 17.27 21.8C17.27 21.2477 17.7177 20.8 18.27 20.8C18.8223 20.8 19.27 21.2477 19.27 21.8Z" stroke="#0B2B5E" stroke-width="2" stroke-linecap="round" stroke-linejoin="round"/>
</svg>
