<svg width="28" height="25" viewBox="0 0 28 25" fill="none" xmlns="http://www.w3.org/2000/svg">
<path d="M5 16.56V7.76C5 6.63989 5 6.07984 5.21799 5.65202C5.40973 5.27569 5.71569 4.96973 6.09202 4.77799C6.51984 4.56 7.0799 4.56 8.2 4.56H19.8C20.9201 4.56 21.4802 4.56 21.908 4.77799C22.2843 4.96973 22.5903 5.27569 22.782 5.65202C23 6.07984 23 6.6399 23 7.76V16.56H17.6627C17.4182 16.56 17.2959 16.56 17.1808 16.5876C17.0787 16.6121 16.9812 16.6525 16.8917 16.7074C16.7908 16.7692 16.7043 16.8557 16.5314 17.0286L16.4686 17.0914C16.2957 17.2643 16.2092 17.3508 16.1083 17.4126C16.0188 17.4675 15.9213 17.5079 15.8192 17.5324C15.7041 17.56 15.5818 17.56 15.3373 17.56H12.6627C12.4182 17.56 12.2959 17.56 12.1808 17.5324C12.0787 17.5079 11.9812 17.4675 11.8917 17.4126C11.7908 17.3508 11.7043 17.2643 11.5314 17.0914L11.4686 17.0286C11.2957 16.8557 11.2092 16.7692 11.1083 16.7074C11.0188 16.6525 10.9213 16.6121 10.8192 16.5876C10.7041 16.56 10.5819 16.56 10.3373 16.56H5ZM5 16.56C4.44772 16.56 4 17.0077 4 17.56V17.8933C4 18.5133 4 18.8233 4.06815 19.0776C4.25308 19.7678 4.79218 20.3069 5.48236 20.4919C5.7367 20.56 6.04669 20.56 6.66667 20.56H21.3333C21.9533 20.56 22.2633 20.56 22.5176 20.4919C23.2078 20.3069 23.7469 19.7678 23.9319 19.0776C24 18.8233 24 18.5133 24 17.8933C24 17.5833 24 17.4283 23.9659 17.3012C23.8735 16.9561 23.6039 16.6865 23.2588 16.5941C23.1317 16.56 22.9767 16.56 22.6667 16.56H22" stroke="#D92E15" stroke-width="2" stroke-linecap="round" stroke-linejoin="round"/>
</svg>
