<svg width="14" height="15" viewBox="0 0 14 15" fill="none" xmlns="http://www.w3.org/2000/svg">
<g id="phone">
<path id="Vector" d="M4.88849 5.66433C5.29449 6.50995 5.84795 7.30249 6.54887 8.00341C7.24979 8.70433 8.04234 9.25779 8.88795 9.66379C8.96068 9.69871 8.99705 9.71617 9.04307 9.72958C9.20661 9.77726 9.40743 9.74301 9.54593 9.64384C9.5849 9.61593 9.61824 9.58259 9.68493 9.51591C9.88886 9.31197 9.99083 9.21001 10.0934 9.14334C10.4801 8.89192 10.9786 8.89192 11.3652 9.14334C11.4678 9.21001 11.5698 9.31197 11.7737 9.51591L11.8874 9.62958C12.1974 9.93959 12.3524 10.0946 12.4366 10.2611C12.604 10.5921 12.604 10.9831 12.4366 11.3142C12.3524 11.4807 12.1974 11.6357 11.8874 11.9457L11.7954 12.0376C11.4865 12.3466 11.332 12.5011 11.122 12.619C10.8889 12.75 10.527 12.8441 10.2597 12.8433C10.0188 12.8426 9.85416 12.7958 9.5249 12.7024C7.75542 12.2002 6.08571 11.2526 4.69272 9.85956C3.29973 8.46657 2.35212 6.79686 1.84989 5.02738C1.75643 4.69812 1.70971 4.53349 1.70899 4.29261C1.70819 4.02531 1.80232 3.66336 1.93323 3.43031C2.05121 3.22029 2.20568 3.06582 2.51463 2.75687L2.60659 2.66492C2.91659 2.35491 3.0716 2.19991 3.23807 2.11571C3.56915 1.94825 3.96014 1.94825 4.29121 2.11571C4.45768 2.19991 4.61269 2.35491 4.9227 2.66492L5.03637 2.77859C5.24031 2.98253 5.34228 3.0845 5.40894 3.18703C5.66036 3.57372 5.66036 4.07223 5.40894 4.45891C5.34228 4.56145 5.24031 4.66342 5.03637 4.86736C4.96969 4.93404 4.93635 4.96738 4.90844 5.00635C4.80927 5.14485 4.77502 5.34567 4.8227 5.50921C4.83611 5.55523 4.85357 5.5916 4.88849 5.66433Z" stroke="#6C7178" stroke-linecap="round" stroke-linejoin="round"/>
</g>
</svg>
