<svg width="29" height="25" viewBox="0 0 29 25" fill="none" xmlns="http://www.w3.org/2000/svg">
<path d="M21.005 22.81H21.505V22.31V11.81V11.31H21.005H8.255H7.755V11.81V22.31V22.81H8.255H21.005ZM21.005 10.81H21.505V10.31V3.56C21.5046 3.22876 21.3728 2.9106 21.1386 2.67638C20.9044 2.44215 20.5868 2.31039 20.2556 2.31H9.005C8.67375 2.31039 8.35561 2.44215 8.12139 2.67638C7.88716 2.9106 7.75539 3.22816 7.755 3.55941V10.31V10.81H8.255H21.005ZM7.7683 2.3233C8.09642 1.99519 8.54127 1.81059 9.00529 1.81H20.2547C20.7187 1.81059 21.1636 1.99519 21.4917 2.3233C21.8199 2.65148 22.0045 3.09644 22.005 3.56056V22.3094C22.0047 22.5747 21.8992 22.829 21.7116 23.0166C21.524 23.2042 21.2697 23.3097 21.0044 23.31H8.25556C7.99029 23.3097 7.73596 23.2042 7.54839 23.0166C7.36087 22.8291 7.25537 22.5749 7.255 22.3097V3.56029C7.25559 3.09627 7.44019 2.65142 7.7683 2.3233Z" stroke="#D92E15"/>
<path d="M9.88 14.185H10.38V17.685H9.88V14.185ZM9.88 5.935H10.38V7.935H9.88V5.935Z" stroke="#D92E15"/>
</svg>
