<svg width="25" height="25" viewBox="0 0 25 25" fill="none" xmlns="http://www.w3.org/2000/svg">
<path d="M21.2302 21.5301L16.8872 17.1871M16.8872 17.1871C17.6301 16.4442 18.2194 15.5623 18.6214 14.5916C19.0235 13.621 19.2304 12.5807 19.2304 11.5301C19.2304 10.4795 19.0235 9.43917 18.6214 8.46854C18.2194 7.49791 17.6301 6.61597 16.8872 5.87308C16.1443 5.1302 15.2624 4.54091 14.2918 4.13886C13.3211 3.73681 12.2808 3.52988 11.2302 3.52988C10.1796 3.52988 9.1393 3.73681 8.16867 4.13886C7.19804 4.54091 6.3161 5.1302 5.57322 5.87308C4.07289 7.37341 3.23001 9.4083 3.23001 11.5301C3.23001 13.6519 4.07289 15.6868 5.57322 17.1871C7.07355 18.6874 9.10843 19.5303 11.2302 19.5303C13.352 19.5303 15.3869 18.6874 16.8872 17.1871Z" stroke="white" stroke-width="1.5" stroke-linecap="round" stroke-linejoin="round"/>
</svg>
