<svg width="29" height="25" viewBox="0 0 29 25" fill="none" xmlns="http://www.w3.org/2000/svg">
<path d="M17.28 2.56V3.96C17.28 4.52005 17.28 4.80008 17.171 5.01399C17.0751 5.20215 16.9222 5.35513 16.734 5.45101C16.5201 5.56 16.2401 5.56 15.68 5.56H12.88C12.3199 5.56 12.0399 5.56 11.826 5.45101C11.6379 5.35513 11.4849 5.20215 11.389 5.01399C11.28 4.80008 11.28 4.52005 11.28 3.96V2.56M10.48 22.56H18.08C19.2001 22.56 19.7602 22.56 20.188 22.342C20.5643 22.1503 20.8703 21.8443 21.062 21.468C21.28 21.0402 21.28 20.4801 21.28 19.36V5.76C21.28 4.63989 21.28 4.07984 21.062 3.65202C20.8703 3.27569 20.5643 2.96973 20.188 2.77799C19.7602 2.56 19.2001 2.56 18.08 2.56H10.48C9.35993 2.56 8.79987 2.56 8.37205 2.77799C7.99572 2.96973 7.68976 3.27569 7.49802 3.65202C7.28003 4.07984 7.28003 4.6399 7.28003 5.76V19.36C7.28003 20.4801 7.28003 21.0402 7.49802 21.468C7.68976 21.8443 7.99572 22.1503 8.37205 22.342C8.79987 22.56 9.35992 22.56 10.48 22.56Z" stroke="#D92E15" stroke-width="2" stroke-linecap="round" stroke-linejoin="round"/>
</svg>
