<svg width="17" height="17" viewBox="0 0 17 17" fill="none" xmlns="http://www.w3.org/2000/svg">
<path d="M8.85195 2.86235C9.00561 2.55106 9.08244 2.39541 9.18674 2.34568C9.27748 2.30242 9.38291 2.30242 9.47365 2.34568C9.57795 2.39541 9.65478 2.55106 9.80844 2.86235L11.2662 5.81566C11.3116 5.90756 11.3342 5.95351 11.3674 5.98919C11.3967 6.02078 11.4319 6.04637 11.471 6.06456C11.5152 6.08509 11.5659 6.0925 11.6673 6.10732L14.9282 6.58395C15.2715 6.63414 15.4432 6.65923 15.5227 6.7431C15.5918 6.81607 15.6243 6.91634 15.6112 7.01599C15.596 7.13053 15.4717 7.25159 15.2231 7.49373L12.8645 9.79109C12.7909 9.8627 12.7542 9.89851 12.7304 9.94112C12.7094 9.97884 12.696 10.0203 12.6908 10.0631C12.6849 10.1116 12.6936 10.1621 12.7109 10.2633L13.2675 13.5083C13.3262 13.8505 13.3555 14.0216 13.3004 14.1232C13.2524 14.2115 13.1671 14.2735 13.0682 14.2918C12.9546 14.3129 12.8009 14.2321 12.4936 14.0705L9.57843 12.5374C9.4876 12.4896 9.44219 12.4658 9.39434 12.4564C9.35198 12.4481 9.30841 12.4481 9.26604 12.4564C9.2182 12.4658 9.17278 12.4896 9.08195 12.5374L6.1668 14.0705C5.85946 14.2321 5.70579 14.3129 5.59216 14.2918C5.4933 14.2735 5.408 14.2115 5.36001 14.1232C5.30485 14.0216 5.3342 13.8505 5.3929 13.5083L5.94944 10.2633C5.96679 10.1621 5.97547 10.1116 5.9696 10.0631C5.9644 10.0203 5.95092 9.97884 5.92992 9.94112C5.9062 9.89851 5.86943 9.8627 5.79591 9.79109L3.43722 7.49373C3.18862 7.25159 3.06433 7.13053 3.0492 7.01599C3.03604 6.91634 3.06855 6.81607 3.13768 6.7431C3.21714 6.65923 3.38883 6.63414 3.73221 6.58395L6.99306 6.10732C7.09447 6.0925 7.14517 6.08509 7.18933 6.06456C7.22843 6.04637 7.26362 6.02078 7.29297 5.98919C7.32612 5.95351 7.3488 5.90756 7.39417 5.81566L8.85195 2.86235Z" fill="#FFA755" stroke="#FFA755" stroke-width="1.5" stroke-linecap="round" stroke-linejoin="round"/>
</svg>
