<svg width="29" height="25" viewBox="0 0 29 25" fill="none" xmlns="http://www.w3.org/2000/svg">
<path d="M19.66 21.56L14.66 17.56L9.66 21.56M9.46 17.56H19.86C21.5402 17.56 22.3802 17.56 23.022 17.233C23.5865 16.9454 24.0454 16.4865 24.333 15.922C24.66 15.2802 24.66 14.4402 24.66 12.76V8.36C24.66 6.67984 24.66 5.83976 24.333 5.19803C24.0454 4.63354 23.5865 4.1746 23.022 3.88698C22.3802 3.56 21.5402 3.56 19.86 3.56H9.46C7.77984 3.56 6.93976 3.56 6.29803 3.88698C5.73354 4.1746 5.2746 4.63354 4.98698 5.19803C4.66 5.83976 4.66 6.67984 4.66 8.36V12.76C4.66 14.4402 4.66 15.2802 4.98698 15.922C5.2746 16.4865 5.73354 16.9454 6.29803 17.233C6.93976 17.56 7.77984 17.56 9.46 17.56Z" stroke="#D92E15" stroke-width="2" stroke-linecap="round" stroke-linejoin="round"/>
</svg>
