<svg width="29" height="25" viewBox="0 0 29 25" fill="none" xmlns="http://www.w3.org/2000/svg">
<path d="M22.4167 20.7921L22.5689 21.1549L22.9623 21.16L24.71 21.1824V21.96H18.91V21.1827L20.7773 21.16L21.668 21.1491L21.3232 20.3278L14.8647 4.94121C14.626 4.35315 14.2263 3.88579 13.7133 3.52789C13.1859 3.15993 12.5767 2.95997 11.92 2.95997C11.0321 2.95997 10.2597 3.29969 9.64164 3.92984C9.02268 4.56094 8.71 5.32136 8.71 6.19997V9.55997V10.16H9.31H11.31C11.9486 10.16 12.5089 10.3289 12.9936 10.6298L13.0024 10.6353L13.0114 10.6404C13.5362 10.9415 13.945 11.3369 14.2375 11.855C14.5442 12.3983 14.71 12.9576 14.71 13.56V21.96H11.3737C11.4966 21.7122 11.5999 21.4547 11.6825 21.19H13.31H13.91V20.59V13.56C13.91 12.8818 13.6741 12.2538 13.1615 11.753C12.6603 11.2531 12.0389 10.99 11.31 10.99H6.31H5.71V11.59V14.0223C5.44918 14.0506 5.1923 14.0977 4.94 14.1635V10.16H7.34H7.94538L7.93998 9.55461L7.91 6.19737C7.91045 5.46718 8.10089 4.79245 8.45773 4.18321C8.81745 3.56905 9.30597 3.0721 9.9187 2.70447C10.5227 2.34209 11.1854 2.15997 11.92 2.15997C12.7418 2.15997 13.475 2.38502 14.135 2.82773C14.8106 3.28418 15.3051 3.87444 15.6288 4.6071L22.4167 20.7921ZM7.91 19.56C7.91 18.6786 7.19137 17.96 6.31 17.96C5.42863 17.96 4.71 18.6786 4.71 19.56C4.71 20.4414 5.42863 21.16 6.31 21.16C7.19137 21.16 7.91 20.4414 7.91 19.56ZM3.91 19.56C3.91 18.2314 4.98137 17.16 6.31 17.16C7.63863 17.16 8.71 18.2314 8.71 19.56C8.71 20.8886 7.63863 21.96 6.31 21.96C4.98137 21.96 3.91 20.8886 3.91 19.56Z" stroke="#D92E15" stroke-width="1.2"/>
</svg>
